<?xml version="1.0" encoding="UTF-8" standalone="no"?>
<svg width="90px" height="86px" viewBox="0 0 90 86" version="1.1" xmlns="http://www.w3.org/2000/svg" xmlns:xlink="http://www.w3.org/1999/xlink" xmlns:sketch="http://www.bohemiancoding.com/sketch/ns">
    <!-- Generator: Sketch 3.3.3 (12072) - http://www.bohemiancoding.com/sketch -->
    <title>Slice 1</title>
    <desc>Created with Sketch.</desc>
    <defs></defs>
    <g id="Page-1" stroke="none" stroke-width="1" fill="none" fill-rule="evenodd" sketch:type="MSPage">
        <path d="M27.28,54.403 L45.398,69.449 L45.357,69.484 L27.28,54.403 L27.28,54.403 Z M45.378,65.887 L29.016,52.3 L45.343,65.918 L45.378,65.887 L45.378,65.887 Z M90,30.378 L90,85.308 L0,85.308 L0,30.373 L9.622,24.066 L9.622,9.01 L32.592,9.01 L45.284,0.691 L57.814,9.01 L80.372,9.01 L80.372,23.986 L90,30.378 L90,30.378 Z M80.373,36.321 L86.371,31.242 L80.373,27.26 L80.373,36.321 L80.373,36.321 Z M37.566,9.01 L52.884,9.01 L45.274,3.958 L37.566,9.01 L37.566,9.01 Z M12.349,38.399 L29.016,52.3 L45.343,65.918 L45.379,65.887 L77.647,38.407 L77.647,25.45 L77.647,22.176 L77.647,11.737 L61.922,11.737 L56.991,11.737 L33.406,11.737 L28.432,11.737 L12.349,11.737 L12.349,22.279 L12.349,25.54 L12.349,38.399 L12.349,38.399 Z M3.653,31.24 L9.622,36.197 L9.622,27.328 L3.653,31.24 L3.653,31.24 Z M87.273,34.051 L45.434,69.478 L45.399,69.449 L27.28,54.403 L2.727,34.014 L2.727,82.582 L87.274,82.582 L87.274,34.051 L87.273,34.051 Z M44.797,51.432 C37.731,51.432 31.74,46.259 31.74,37.985 C31.74,29.107 37.901,21.436 47.471,21.436 C54.969,21.436 60.011,26.693 60.011,33.89 C60.011,40.355 56.39,44.149 52.339,44.149 C50.614,44.149 49.02,42.985 49.151,40.355 L48.978,40.355 C47.47,42.898 45.486,44.149 42.901,44.149 C40.402,44.149 38.247,42.122 38.247,38.717 C38.247,33.374 42.471,28.505 48.462,28.505 C50.313,28.505 51.952,28.893 53.071,29.41 L51.608,37.21 C50.96,40.485 51.477,41.995 52.901,42.037 C55.098,42.082 57.555,39.15 57.555,34.15 C57.555,27.902 53.806,23.419 47.125,23.419 C40.101,23.419 34.197,28.98 34.197,37.726 C34.197,44.923 38.893,49.362 45.272,49.362 C47.729,49.362 50.012,48.845 51.779,47.854 L52.469,49.708 C50.098,50.957 47.686,51.432 44.797,51.432 L44.797,51.432 Z M50.098,31.089 C49.668,30.961 48.934,30.787 47.943,30.787 C44.152,30.787 41.092,34.363 41.092,38.545 C41.092,40.441 42.038,41.82 43.937,41.82 C46.436,41.82 48.719,38.632 49.194,35.958 L50.098,31.089 L50.098,31.089 Z" id="Shape" fill="#000000" sketch:type="MSShapeGroup"></path>
    </g>
</svg>