<?xml version="1.0" encoding="UTF-8"?>
<svg width="120px" height="120px" viewBox="0 0 120 120" version="1.1" xmlns="http://www.w3.org/2000/svg" xmlns:xlink="http://www.w3.org/1999/xlink">
    <!-- Generator: Sketch 40.2 (33826) - http://www.bohemiancoding.com/sketch -->
    <title>image-annotation</title>
    <desc>Created with Sketch.</desc>
    <defs></defs>
    <g id="Page-1" stroke="none" stroke-width="1" fill="none" fill-rule="evenodd">
        <g id="Group" transform="translate(19.000000, 34.637820)" fill="#45565C">
            <path d="M0,3.36219 L0,57.3622 C0,58.9896 1.3726,60.3622 3,60.3622 L79,60.3622 C80.6274,60.3622 82,58.9896 82,57.3622 L82,3.36219 C82,1.73477 80.6274,0.36217 79,0.36217 L3,0.36217 C1.3726,0.36217 0,1.73477 0,3.36219 Z M4,4.36219 L78,4.36219 L78,42.6434 L55.375,20.89339 C54.41194,20.14879 53.25636,20.16319 52.53125,21.01839 L34.8125,40.5809 L20.9375,28.8309 C20.24446,28.2352 19.12784,28.2076 18.40625,28.7689 L4,40.2059 L4,4.36219 L4,4.36219 Z M32,10.36219 C27.60541,10.36219 24,13.96759 24,18.36219 C24,22.75679 27.60541,26.36219 32,26.36219 C36.39459,26.36219 40,22.75679 40,18.36219 C40,13.96759 36.39459,10.36219 32,10.36219 L32,10.36219 Z M32,14.36219 C34.23283,14.36219 36,16.12929 36,18.36219 C36,20.59499 34.23283,22.36219 32,22.36219 C29.76717,22.36219 28,20.59499 28,18.36219 C28,16.12929 29.76717,14.36219 32,14.36219 L32,14.36219 Z M54.09375,25.20589 L78,48.2059 L78,56.3622 L4,56.3622 L4,45.3309 L19.59375,32.9247 L33.71875,44.8622 C34.49156,45.5167 35.77506,45.4438 36.46875,44.7059 L54.09375,25.20589 L54.09375,25.20589 Z" id="Shape"></path>
        </g>
        <g id="Group" transform="translate(78.000000, 18.000000)">
            <path d="M38.4428571,6.90909091 L32.0357143,0.552727273 C31.3392857,-0.138181818 30.225,-0.138181818 29.4589286,0.552727273 L28.3446429,1.72727273 L24.8625,5.18181818 L23.6089286,6.42545455 L5.91964286,23.9054545 C5.85,23.9745455 5.78035714,24.0436364 5.71071429,24.1818182 C5.64107143,24.2509091 5.64107143,24.32 5.57142857,24.3890909 L5.50178571,24.4581818 L0.696428571,35.5127273 C0.417857143,36.2036364 0.557142857,36.9636364 1.04464286,37.4472727 C1.39285714,37.7927273 1.88035714,38 2.29821429,38 C2.50714286,38 2.78571429,37.9309091 2.99464286,37.8618182 L14.1375,33.0945455 C14.2767857,33.0254545 14.3464286,33.0254545 14.4857143,32.9563636 C14.5553571,32.9563636 14.5553571,32.8872727 14.625,32.8181818 L14.7642857,32.68 L33.7071429,13.8872727 L37.1892857,10.4327273 L38.3732143,9.25818182 C38.7214286,8.91272727 38.9303571,8.49818182 38.9303571,8.01454545 C38.9303571,7.66909091 38.7910714,7.18545455 38.4428571,6.90909091 L38.4428571,6.90909091 Z M5.85,32.8872727 L7.8,28.2581818 L10.4464286,30.8836364 L5.85,32.8872727 L5.85,32.8872727 Z M32.5232143,10.2254545 L28.6232143,6.35636364 L30.7125,4.28363636 L34.6125,8.15272727 L32.5232143,10.2254545 L32.5232143,10.2254545 Z" id="Shape" fill="#45565C"></path>
            <path d="M13.65,28.9490909 L9.75,25.1490909 L26.1160714,8.91272727 L26.1160714,8.91272727 C26.1857143,8.91272727 26.1857143,8.84363636 26.1857143,8.84363636 L26.1160714,8.91272727 L30.0160714,12.7818182 L13.65,28.9490909 L13.65,28.9490909 Z" id="Path" fill="#FFFFFF"></path>
            <path d="M5.57142857,24.3890909 L5.50178571,24.4581818 L5.57142857,24.3890909 C5.57142857,24.4581818 5.57142857,24.3890909 5.57142857,24.3890909 L5.57142857,24.3890909 Z" id="Shape" fill="#000000"></path>
            <path d="M26.2553571,8.77454545 L26.1857143,8.84363636 L26.1857143,8.84363636 C26.1857143,8.84363636 26.1857143,8.84363636 26.2553571,8.77454545 L26.2553571,8.77454545 Z" id="Shape" fill="#000000"></path>
        </g>
        <rect id="Rectangle" fill="#FFFFFF" transform="translate(86.353230, 36.721188) rotate(-45.000000) translate(-86.353230, -36.721188) " x="79.5423477" y="34.7211877" width="13.6217655" height="4"></rect>
        <rect id="Rectangle" fill="#FFFFFF" transform="translate(100.130236, 46.230235) rotate(-45.000000) translate(-100.130236, -46.230235) " x="93.3193537" y="44.2302349" width="13.6217655" height="4"></rect>
    </g>
</svg>