<?xml version="1.0" encoding="UTF-8"?>
<svg width="120px" height="120px" viewBox="0 0 120 120" version="1.1" xmlns="http://www.w3.org/2000/svg" xmlns:xlink="http://www.w3.org/1999/xlink">
    <!-- Generator: Sketch 40.2 (33826) - http://www.bohemiancoding.com/sketch -->
    <title>microprinter</title>
    <desc>Created with Sketch.</desc>
    <defs></defs>
    <g id="Page-1" stroke="none" stroke-width="1" fill="none" fill-rule="evenodd">
        <path d="M44.7,108.3 L77.3,108.3 C79.5,108.3 81.3,106.5 81.3,104.3 L81.3,93.8 L87.7,93.8 C91,93.8 93.7,91.1 93.7,87.8 L93.7,63.2 C93.7,59.9 91,57.2 87.7,57.2 L81.3,57.2 L81.3,44.8 C81.3,42.6 79.5,40.8 77.3,40.8 L44.7,40.8 C42.5,40.8 40.7,42.6 40.7,44.8 L40.7,57.3 L34.4,57.3 C31.1,57.3 28.4,60 28.4,63.3 L28.4,87.9 C28.4,91.2 31.1,93.9 34.4,93.9 L40.8,93.9 L40.8,104.3 C40.7,106.5 42.5,108.3 44.7,108.3 L44.7,108.3 Z M77.8,104.3 C77.8,104.6 77.6,104.8 77.3,104.8 L44.7,104.8 C44.4,104.8 44.2,104.6 44.2,104.3 L44.2,77.3 L77.8,77.3 L77.8,104.3 L77.8,104.3 Z M44.2,44.8 C44.2,44.5 44.4,44.3 44.7,44.3 L77.3,44.3 C77.6,44.3 77.8,44.5 77.8,44.8 L77.8,57.3 L44.2,57.3 L44.2,44.8 L44.2,44.8 Z M34.4,90.3 C33,90.3 31.9,89.2 31.9,87.8 L31.9,63.2 C31.9,61.8 33,60.7 34.4,60.7 L87.7,60.7 C89.1,60.7 90.2,61.8 90.2,63.2 L90.2,87.8 C90.2,89.2 89.1,90.3 87.7,90.3 L81.3,90.3 L81.3,75.5 C81.3,74.5 80.5,73.7 79.5,73.7 L42.5,73.7 C41.5,73.7 40.7,74.5 40.7,75.5 L40.7,90.3 L34.4,90.3 L34.4,90.3 Z M72.3,91 C72.3,92 71.5,92.8 70.5,92.8 L51.5,92.8 C50.5,92.8 49.7,92 49.7,91 C49.7,90 50.5,89.2 51.5,89.2 L70.6,89.2 C71.5,89.3 72.3,90.1 72.3,91 L72.3,91 Z M72.3,98.7 C72.3,99.7 71.5,100.5 70.5,100.5 L51.5,100.5 C50.5,100.5 49.7,99.7 49.7,98.7 C49.7,97.7 50.5,96.9 51.5,96.9 L70.6,96.9 C71.5,96.9 72.3,97.7 72.3,98.7 L72.3,98.7 Z M72.3,83.4 C72.3,84.4 71.5,85.2 70.5,85.2 L51.5,85.2 C50.5,85.2 49.7,84.4 49.7,83.4 C49.7,82.4 50.5,81.6 51.5,81.6 L70.6,81.6 C71.5,81.6 72.3,82.4 72.3,83.4 L72.3,83.4 Z M40.8,66.7 C40.8,68.1 39.7,69.2 38.3,69.2 C36.9,69.2 35.8,68.1 35.8,66.7 C35.8,65.3 36.9,64.2 38.3,64.2 C39.7,64.2 40.8,65.3 40.8,66.7 L40.8,66.7 Z M70.4,26.6 C67.7,24.7 64.4,23.6 61,23.6 C57.6,23.6 54.3,24.6 51.6,26.6 C50.8,27.2 49.7,27 49.2,26.2 C48.6,25.4 48.8,24.3 49.6,23.8 C52.9,21.4 56.9,20.2 61,20.2 C65.1,20.2 69.1,21.5 72.4,23.8 C73.2,24.4 73.4,25.5 72.8,26.2 C72.5,26.7 72,27 71.4,27 C71.1,27 70.7,26.9 70.4,26.6 L70.4,26.6 Z M66.1,32.1 C66.9,32.7 67.1,33.8 66.5,34.5 C66.2,35 65.6,35.2 65.1,35.2 C64.7,35.2 64.4,35.1 64.1,34.9 C62.3,33.6 59.8,33.6 58,34.9 C57.2,35.5 56.1,35.3 55.6,34.5 C55,33.7 55.2,32.6 56,32.1 C57.5,31 59.3,30.5 61.1,30.5 C62.9,30.5 64.6,31.1 66.1,32.1 L66.1,32.1 Z M77.8,18.6 C72.9,15.1 67.1,13.2 61,13.2 C54.9,13.2 49.1,15 44.2,18.5 C43.4,19.1 42.3,18.9 41.8,18.1 C41.2,17.3 41.4,16.2 42.2,15.7 C47.7,11.8 54.2,9.7 61,9.7 C67.8,9.7 74.3,11.8 79.8,15.7 C80.6,16.3 80.8,17.4 80.2,18.1 C79.9,18.6 79.3,18.8 78.8,18.8 C78.4,18.9 78.1,18.8 77.8,18.6 L77.8,18.6 Z" id="Shape" fill="#45565C"></path>
    </g>
</svg>