<?xml version="1.0" encoding="UTF-8"?>
<svg width="102px" height="102px" viewBox="0 0 102 102" version="1.1" xmlns="http://www.w3.org/2000/svg" xmlns:xlink="http://www.w3.org/1999/xlink">
    <!-- Generator: Sketch 40.2 (33826) - http://www.bohemiancoding.com/sketch -->
    <title>microprinter</title>
    <desc>Created with Sketch.</desc>
    <defs></defs>
    <g id="Page-1" stroke="none" stroke-width="1" fill="none" fill-rule="evenodd">
        <path d="M34.7,100.3 L67.3,100.3 C69.5,100.3 71.3,98.5 71.3,96.3 L71.3,85.8 L77.7,85.8 C81,85.8 83.7,83.1 83.7,79.8 L83.7,55.2 C83.7,51.9 81,49.2 77.7,49.2 L71.3,49.2 L71.3,36.8 C71.3,34.6 69.5,32.8 67.3,32.8 L34.7,32.8 C32.5,32.8 30.7,34.6 30.7,36.8 L30.7,49.3 L24.4,49.3 C21.1,49.3 18.4,52 18.4,55.3 L18.4,79.9 C18.4,83.2 21.1,85.9 24.4,85.9 L30.8,85.9 L30.8,96.3 C30.7,98.5 32.5,100.3 34.7,100.3 L34.7,100.3 Z M67.8,96.3 C67.8,96.6 67.6,96.8 67.3,96.8 L34.7,96.8 C34.4,96.8 34.2,96.6 34.2,96.3 L34.2,69.3 L67.8,69.3 L67.8,96.3 L67.8,96.3 Z M34.2,36.8 C34.2,36.5 34.4,36.3 34.7,36.3 L67.3,36.3 C67.6,36.3 67.8,36.5 67.8,36.8 L67.8,49.3 L34.2,49.3 L34.2,36.8 L34.2,36.8 Z M24.4,82.3 C23,82.3 21.9,81.2 21.9,79.8 L21.9,55.2 C21.9,53.8 23,52.7 24.4,52.7 L77.7,52.7 C79.1,52.7 80.2,53.8 80.2,55.2 L80.2,79.8 C80.2,81.2 79.1,82.3 77.7,82.3 L71.3,82.3 L71.3,67.5 C71.3,66.5 70.5,65.7 69.5,65.7 L32.5,65.7 C31.5,65.7 30.7,66.5 30.7,67.5 L30.7,82.3 L24.4,82.3 L24.4,82.3 Z M62.3,83 C62.3,84 61.5,84.8 60.5,84.8 L41.5,84.8 C40.5,84.8 39.7,84 39.7,83 C39.7,82 40.5,81.2 41.5,81.2 L60.6,81.2 C61.5,81.3 62.3,82.1 62.3,83 L62.3,83 Z M62.3,90.7 C62.3,91.7 61.5,92.5 60.5,92.5 L41.5,92.5 C40.5,92.5 39.7,91.7 39.7,90.7 C39.7,89.7 40.5,88.9 41.5,88.9 L60.6,88.9 C61.5,88.9 62.3,89.7 62.3,90.7 L62.3,90.7 Z M62.3,75.4 C62.3,76.4 61.5,77.2 60.5,77.2 L41.5,77.2 C40.5,77.2 39.7,76.4 39.7,75.4 C39.7,74.4 40.5,73.6 41.5,73.6 L60.6,73.6 C61.5,73.6 62.3,74.4 62.3,75.4 L62.3,75.4 Z M30.8,58.7 C30.8,60.1 29.7,61.2 28.3,61.2 C26.9,61.2 25.8,60.1 25.8,58.7 C25.8,57.3 26.9,56.2 28.3,56.2 C29.7,56.2 30.8,57.3 30.8,58.7 L30.8,58.7 Z M60.4,18.6 C57.7,16.7 54.4,15.6 51,15.6 C47.6,15.6 44.3,16.6 41.6,18.6 C40.8,19.2 39.7,19 39.2,18.2 C38.6,17.4 38.8,16.3 39.6,15.8 C42.9,13.4 46.9,12.2 51,12.2 C55.1,12.2 59.1,13.5 62.4,15.8 C63.2,16.4 63.4,17.5 62.8,18.2 C62.5,18.7 62,19 61.4,19 C61.1,19 60.7,18.9 60.4,18.6 L60.4,18.6 Z M56.1,24.1 C56.9,24.7 57.1,25.8 56.5,26.5 C56.2,27 55.6,27.2 55.1,27.2 C54.7,27.2 54.4,27.1 54.1,26.9 C52.3,25.6 49.8,25.6 48,26.9 C47.2,27.5 46.1,27.3 45.6,26.5 C45,25.7 45.2,24.6 46,24.1 C47.5,23 49.3,22.5 51.1,22.5 C52.9,22.5 54.6,23.1 56.1,24.1 L56.1,24.1 Z M67.8,10.6 C62.9,7.1 57.1,5.2 51,5.2 C44.9,5.2 39.1,7 34.2,10.5 C33.4,11.1 32.3,10.9 31.8,10.1 C31.2,9.3 31.4,8.2 32.2,7.7 C37.7,3.8 44.2,1.7 51,1.7 C57.8,1.7 64.3,3.8 69.8,7.7 C70.6,8.3 70.8,9.4 70.2,10.1 C69.9,10.6 69.3,10.8 68.8,10.8 C68.4,10.9 68.1,10.8 67.8,10.6 L67.8,10.6 Z" id="Shape" fill="#000000"></path>
    </g>
</svg>