<?xml version="1.0" encoding="UTF-8"?>
<svg width="67px" height="64px" viewBox="0 0 67 64" version="1.1" xmlns="http://www.w3.org/2000/svg" xmlns:xlink="http://www.w3.org/1999/xlink">
    <!-- Generator: Sketch 40.2 (33826) - http://www.bohemiancoding.com/sketch -->
    <title>nascent-logo</title>
    <desc>Created with Sketch.</desc>
    <defs></defs>
    <g id="Page-1" stroke="none" stroke-width="1" fill="none" fill-rule="evenodd">
        <rect id="black-backdrop" fill="#FFFFFF" x="-1" y="-4" width="72" height="72"></rect>
        <rect id="backdrop" fill="#FFFFFF" x="-6" y="-9" width="82" height="82"></rect>
        <g id="nascent-logo" transform="translate(3.000000, 0.000000)">
            <rect id="Rectangle-1" fill="#006EB7" x="6" y="19" width="40" height="38"></rect>
            <rect id="Rectangle-2" fill="#4E5137" x="16.6999969" y="32" width="15" height="15.3000002"></rect>
            <path d="M1.6226,42.2794 C7.51285409,51.0390207 22.0296,62.5254 22.0296,62.5254 C22.0296,62.5254 14.8046,64.2814 11.0596,63.0594 C2.9346,60.4174 -1.4984,51.6814 1.1446,43.5664 C1.2876,43.1304 1.4506,42.6944 1.6226,42.2794 Z" id="Fill-29" fill="#F48245"></path>
            <path d="M29.087,56.3422 C27.413,59.1442 24.919,61.2712 22.03,62.5252 C12.51,59.6722 4.678,52.2252 1.623,42.2792 C2.914,39.2472 5.077,36.8202 7.727,35.1882 C7.627,36.8462 17.4936264,46.0975685 29.087,56.3422 Z" id="Fill-35" fill="#A27B45"></path>
            <path d="M16.688,32.9135 C18.884,38.7915 23.327,43.8265 29.486,46.6105 C30.079,46.8775 30.682,47.1255 31.286,47.3345 C31.409,49.2485 31.18,51.2125 30.553,53.1455 C30.179,54.2845 29.687,55.3605 29.087,56.3425 C19.182,57.0185 10.08,50.2545 8.086,40.2615 C7.747,38.5505 7.627,36.8465 7.727,35.1885 C10.376,33.5665 13.492,32.7385 16.688,32.9135" id="Fill-27" fill="#6B5946"></path>
            <path d="M63.8438,23.0014 C63.3238,14.2724 58.0838,6.1034 49.5548,2.2474 C46.6818,0.9514 43.7412002,0.252000001 40.7752002,0.104000001 C36.3894,-0.115 32.0884,0.848 28.2884,2.815 C45.4230264,14.2301479 45.2033317,12.5942161 51.3953317,18.6512161 C51.4447317,18.6926161 53.344884,12.5822817 53.393884,12.6342817 L63.8438,23.0014 Z M52.4841737,11.7493661 L53.2316933,18.9173311 C53.2316933,18.9173311 59.9141221,32.7003702 61.2738,35.4204 C61.4328,35.1054 61.5818,34.7894 61.7318,34.4744 C63.4138,30.7424 64.0798,26.8204 63.8438,23.0014 L52.4841737,11.7493661 Z" id="Fill-39" fill="#98CA4E"></path>
            <path d="M61.2735,35.4209 C57.7115,42.4879 51.1015,47.1129 43.7695,48.4059 C42.9565551,49.511825 42.005629,50.5347613 40.9577132,51.453713 C38.4006,53.6786 35.2506,55.2956 31.6986,56.0006 C30.8226,56.1746 29.9486,56.2876 29.0866,56.3426 C27.4126,59.1446 24.9186,61.2716 22.0296,62.5256 C26.6706,63.9246 31.7136,64.2346 36.7956,63.2146 C40.9524999,62.3776202 44.752417,60.7406789 48.0413623,58.4777635 C55.6705,53.2619 60.6155,44.7649 61.2735,35.4209 Z" id="Fill-47" fill="#97D4F0"></path>
            <path d="M61.2734,35.4214 C57.7114,42.4874 51.1014,47.1134 43.7694,48.4054 C43.7694006,43.9810695 17.8434,18.6114 15.4684,20.4524 C15.8094,18.4114 16.4204,16.3684 17.3094,14.3834 C19.6544,9.2014 23.5934,5.2464 28.2784,2.8154 C37.3444,2.0644 45.9994,5.4034 52.1914,11.4604 C52.2404,11.5014 52.2894,11.5524 52.3374,11.6044 C56.4964,15.7294 59.5184,21.0924 60.7554,27.2714 C61.3034,30.0194 61.4624,32.7554 61.2734,35.4214 Z" id="Fill-43" fill="#48A741"></path>
            <path d="M15.4685,20.4518 C17.8435,18.6118 20.6745,17.2758 23.8245,16.6488 C34.6945,14.4608 45.2695,21.5188 47.4375,32.3878 C48.6045,38.2248 47.1125,43.9928 43.7695,48.4058 C41.9585,48.7418 40.0945,48.8568 38.2165,48.7508 C35.8993,48.6316 33.5623,48.1616 31.2853,47.3346 C31.0433,43.7256 29.5443,40.3096 27.0703,37.7046 C27.0504852,37.6837844 27.0314887,37.6637879 27.0025,37.6328 C26.9155,37.5398 26.8275,37.4468 26.7295,37.3638 C26.6435,37.2718 26.5555,37.1888 26.4675,37.1068 C26.4385,37.0758 26.4195,37.0548 26.3895,37.0338 C24.7908794,35.5440449 22.8560402,34.3671969 20.6376,33.6517 C19.3296,33.2227 18.0066,32.9827 16.6876,32.9137 C15.8536245,30.6877655 15.34363,28.341838 15.2046123,25.9469113 C15.0785,24.1318 15.1635,22.2938 15.4685,20.4518 Z" id="Fill-37" fill="#257534"></path>
            <path d="M5.418,16.2612 L12.513,23.2852 C9.704,26.5732 7.979,30.7342 7.727,35.1882 C5.077,36.8202 2.914,39.2472 1.623,42.2792 C1.312,41.3002 1.062,40.2922 0.853,39.2562 C-0.812,30.9522 1.063,22.7742 5.418,16.2612 L5.418,16.2612 L5.418,16.2612 Z M24.8018,3.312 C25.9688,3.077 27.1248,2.911 28.2788,2.815 C23.5938,5.246 19.6538,9.202 17.3088,14.384 C16.4198,16.369 15.8088,18.411 15.4678,20.452 C14.3828,21.3 13.3938,22.251 12.5128,23.285 L5.4178,16.261 C9.7628,9.788 16.5588,4.957 24.8018,3.312 L24.8018,3.312 L24.8018,3.312 Z" id="Fill-67" fill="#97D4F0"></path>
        </g>
    </g>
</svg>