<?xml version="1.0" encoding="UTF-8"?>
<svg width="120px" height="120px" viewBox="0 0 120 120" version="1.1" xmlns="http://www.w3.org/2000/svg" xmlns:xlink="http://www.w3.org/1999/xlink">
    <!-- Generator: Sketch 40.2 (33826) - http://www.bohemiancoding.com/sketch -->
    <title>oculus-reparo</title>
    <desc>Created with Sketch.</desc>
    <defs></defs>
    <g id="Page-1" stroke="none" stroke-width="1" fill="none" fill-rule="evenodd">
        <path d="M109,56.7627829 L105.571,56.7627829 C103.968,47.2653079 95.719,40 85.786,40 C78.226,40 71.636,44.204966 68.208,50.3997551 C65.806,48.1145128 62.566,46.701508 58.999,46.701508 C55.432,46.701508 52.195,48.1145128 49.792,50.3997551 C46.363,44.204966 39.773,40 32.214,40 C22.28,40 14.03,47.2653079 12.429,56.7627829 L9,56.7627829 L9,63.4672952 L12.429,63.4672952 C14.031,72.9657715 22.28,80.230078 32.214,80.230078 C43.291,80.230078 52.301,71.2052737 52.301,60.1145383 C52.301,56.4152898 55.305,53.4060203 58.998,53.4060203 C62.693,53.4060203 65.698,56.4152898 65.698,60.1145383 C65.698,71.2052737 74.709,80.230078 85.786,80.230078 C95.72,80.230078 103.969,72.9657715 105.571,63.4672952 L109,63.4672952 L109,56.7627829 L109,56.7627829 Z M32.214,73.5265671 C24.83,73.5265671 18.822,67.5100309 18.822,60.1155397 C18.822,52.7210485 24.83,46.7045123 32.214,46.7045123 C39.598,46.7045123 45.606,52.7210485 45.606,60.1155397 C45.606,67.5100309 39.598,73.5265671 32.214,73.5265671 L32.214,73.5265671 Z M85.786,73.5265671 C78.402,73.5265671 72.394,67.5100309 72.394,60.1155397 C72.394,52.7210485 78.402,46.7045123 85.786,46.7045123 C93.169,46.7045123 99.178,52.7210485 99.178,60.1155397 C99.178,67.5100309 93.169,73.5265671 85.786,73.5265671 L85.786,73.5265671 Z" id="Shape" fill="#000000"></path>
    </g>
</svg>