<?xml version="1.0" encoding="UTF-8"?>
<svg width="130px" height="130px" viewBox="0 0 130 130" version="1.1" xmlns="http://www.w3.org/2000/svg" xmlns:xlink="http://www.w3.org/1999/xlink">
    <!-- Generator: Sketch 40.2 (33826) - http://www.bohemiancoding.com/sketch -->
    <title>oculus-reparo</title>
    <desc>Created with Sketch.</desc>
    <defs></defs>
    <g id="Page-1" stroke="none" stroke-width="1" fill="none" fill-rule="evenodd">
        <path d="M114,61.7627829 L110.571,61.7627829 C108.968,52.2653079 100.719,45 90.786,45 C83.226,45 76.636,49.204966 73.208,55.3997551 C70.806,53.1145128 67.566,51.701508 63.999,51.701508 C60.432,51.701508 57.195,53.1145128 54.792,55.3997551 C51.363,49.204966 44.773,45 37.214,45 C27.28,45 19.03,52.2653079 17.429,61.7627829 L14,61.7627829 L14,68.4672952 L17.429,68.4672952 C19.031,77.9657715 27.28,85.230078 37.214,85.230078 C48.291,85.230078 57.301,76.2052737 57.301,65.1145383 C57.301,61.4152898 60.305,58.4060203 63.998,58.4060203 C67.693,58.4060203 70.698,61.4152898 70.698,65.1145383 C70.698,76.2052737 79.709,85.230078 90.786,85.230078 C100.72,85.230078 108.969,77.9657715 110.571,68.4672952 L114,68.4672952 L114,61.7627829 L114,61.7627829 Z M37.214,78.5265671 C29.83,78.5265671 23.822,72.5100309 23.822,65.1155397 C23.822,57.7210485 29.83,51.7045123 37.214,51.7045123 C44.598,51.7045123 50.606,57.7210485 50.606,65.1155397 C50.606,72.5100309 44.598,78.5265671 37.214,78.5265671 L37.214,78.5265671 Z M90.786,78.5265671 C83.402,78.5265671 77.394,72.5100309 77.394,65.1155397 C77.394,57.7210485 83.402,51.7045123 90.786,51.7045123 C98.169,51.7045123 104.178,57.7210485 104.178,65.1155397 C104.178,72.5100309 98.169,78.5265671 90.786,78.5265671 L90.786,78.5265671 Z" id="Shape" fill="#45565C"></path>
    </g>
</svg>