<svg xmlns="http://www.w3.org/2000/svg" xmlns:xlink="http://www.w3.org/1999/xlink" version="1.1" x="0px" y="0px" viewBox="0 0 100 100" enable-background="new 0 0 100 100" xml:space="preserve"><path d="M95.968,30.766L70.529,5.317c-3.318-3.317-8.693-3.313-12-0.003L33.072,30.766c-3.312,3.314-3.307,8.679,0.006,11.992  c3.316,3.316,8.682,3.31,11.996-0.002c1.74-1.741,10.966-10.96,10.966-10.96l-0.002,30.636c0,0.117,0.014-0.432,0.018,0.568h-0.028  c0,10-7.932,11.648-10.796,11.934l-35.385-0.11c-4.684,0-8.482,3.743-8.482,8.427c-0.005,4.683,3.798,8.455,8.482,8.453  l35.826-0.012l0.014-0.064c1.152-0.004,6.975,0.274,12.921-2.802c9.095-4.705,14.159-12.613,14.327-25.601  c0.039-0.333,0.064-0.669,0.064-1.011L73.003,31.8c0,0,9.218,9.208,10.971,10.96c3.314,3.316,8.682,3.313,11.994,0  S99.28,34.076,95.968,30.766z"></path></svg>