<?xml version="1.0" encoding="UTF-8"?>
<svg width="100px" height="100px" viewBox="0 0 100 100" version="1.1" xmlns="http://www.w3.org/2000/svg" xmlns:xlink="http://www.w3.org/1999/xlink">
    <!-- Generator: Sketch 40.2 (33826) - http://www.bohemiancoding.com/sketch -->
    <title>whois</title>
    <desc>Created with Sketch.</desc>
    <defs></defs>
    <g id="Page-1" stroke="none" stroke-width="1" fill="none" fill-rule="evenodd">
        <g id="Group" transform="translate(16.000000, 12.000000)" fill="#45565C">
            <path d="M10.9,58.6 C9.8,58.6 8.9,59.5 8.9,60.6 L8.9,61.3 C8.9,62.4 9.8,63.3 10.9,63.3 C12,63.3 12.9,62.4 12.9,61.3 L12.9,60.6 C12.9,59.5 12,58.6 10.9,58.6 L10.9,58.6 Z" id="Shape"></path>
            <path d="M70.5,41.8 L64.1,41.8 L64.1,35.8 C64.1,34.7 63.2,33.8 62.1,33.8 L38.5,33.8 L38.5,29.7 L47.1,29.7 C52.2,29.7 56.4,25.5 56.4,20.4 C56.4,16.1 53.5,12.5 49.6,11.4 C49.8,10 49.8,8.5 49.3,7.1 C48.1,3.2 44.5,0.6 40.4,0.6 C39.5,0.6 35.2,0.8 32.4,5.1 C28.9,4.1 26.2,5.6 24.7,7.1 C23.4,8.4 22.6,10 22.5,11.8 C18.9,13.1 16.5,16.6 16.5,20.5 C16.5,25.6 20.7,29.8 25.8,29.8 L34.4,29.8 L34.4,33.9 L10.9,33.9 C9.8,33.9 8.9,34.8 8.9,35.9 L8.9,41.9 L2.5,41.9 C1.4,41.9 0.5,42.8 0.5,43.9 L0.5,70.6 C0.5,71.7 1.4,72.6 2.5,72.6 L19.3,72.6 C20.4,72.6 21.3,71.7 21.3,70.6 L21.3,43.8 C21.3,42.7 20.4,41.8 19.3,41.8 L12.9,41.8 L12.9,37.8 L60.1,37.8 L60.1,41.8 L53.7,41.8 C52.6,41.8 51.7,42.7 51.7,43.8 L51.7,70.5 C51.7,71.6 52.6,72.5 53.7,72.5 L70.5,72.5 C71.6,72.5 72.5,71.6 72.5,70.5 L72.5,43.8 C72.5,42.6 71.6,41.8 70.5,41.8 L70.5,41.8 Z M20.6,20.3 C20.6,17.7 22.4,15.5 25,15.1 C26.1,14.9 26.8,13.9 26.6,12.9 C26.5,11.8 26.8,10.6 27.7,9.8 C28.4,9.1 30.3,8.1 32.4,9.3 C32.9,9.6 33.6,9.7 34.2,9.5 C34.8,9.3 35.2,8.8 35.4,8.2 C36.7,4.6 39.9,4.5 40.5,4.5 C42.8,4.5 44.9,6 45.6,8.2 C46,9.5 45.9,10.9 45.3,12.1 C45,12.7 45,13.5 45.4,14 C45.8,14.6 46.4,14.9 47.1,14.9 L47.2,14.9 C50.1,14.9 52.5,17.3 52.5,20.2 C52.5,23.1 50.1,25.5 47.2,25.5 L25.9,25.5 C22.9,25.6 20.6,23.3 20.6,20.3 L20.6,20.3 Z M4.5,68.5 L4.5,53.5 L17.3,53.5 L17.3,68.5 L4.5,68.5 L4.5,68.5 Z M17.3,49.5 L4.5,49.5 L4.5,45.8 L17.3,45.8 L17.3,49.5 L17.3,49.5 Z M68.5,45.8 L68.5,49.5 L55.7,49.5 L55.7,45.8 L68.5,45.8 L68.5,45.8 Z M55.7,68.5 L55.7,53.5 L68.5,53.5 L68.5,68.5 L55.7,68.5 L55.7,68.5 Z" id="Shape"></path>
            <path d="M62.1,58.6 C61,58.6 60.1,59.5 60.1,60.6 L60.1,61.3 C60.1,62.4 61,63.3 62.1,63.3 C63.2,63.3 64.1,62.4 64.1,61.3 L64.1,60.6 C64.1,59.5 63.2,58.6 62.1,58.6 L62.1,58.6 Z" id="Shape"></path>
        </g>
    </g>
</svg>