<?xml version="1.0" encoding="UTF-8"?>
<svg width="200px" height="78px" viewBox="0 0 200 78" version="1.1" xmlns="http://www.w3.org/2000/svg" xmlns:xlink="http://www.w3.org/1999/xlink">
    <!-- Generator: Sketch 40.2 (33826) - http://www.bohemiancoding.com/sketch -->
    <title>flipbit-logo</title>
    <desc>Created with Sketch.</desc>
    <defs></defs>
    <g id="Page-1" stroke="none" stroke-width="1" fill="none" fill-rule="evenodd">
        <g id="logo" transform="translate(31.125197, 36.733535) scale(-1, 1) rotate(-51.000000) translate(-31.125197, -36.733535) translate(-1.874803, -0.266465)">
            <path d="M0.158818122,31.2042403 L34.7451803,73.3716252 C34.7451803,73.3716252 25.5071292,31.2026756 38.7727453,0.169771096 L0.158818122,31.2042403 L0.158818122,31.2042403 Z" id="large" fill="#00A8E5"></path>
            <path d="M36.2433907,23.3313991 C36.2433907,23.3313991 30.9554513,46.8396106 35.6941773,66.9758708 C35.6941773,66.9758708 34.0355841,44.2343675 60.330545,14.8584915 L36.2433907,23.3313991 L36.2433907,23.3313991 Z" id="medium" fill="#0086AF"></path>
            <path d="M37.3590293,70.8125411 C37.3590293,70.8125411 36.8700573,53.9692142 46.8208341,38.5935859 L65.5590254,38.5935859 C65.5590254,38.5935859 49.4479831,47.4060358 37.3590293,70.8125411 L37.3590293,70.8125411 Z" id="small" fill="#004170"></path>
        </g>
        <path d="M74.0708189,32.9145048 L74.0708189,25.4737907 C74.0708189,24.0421015 74.5144343,23.1044599 75.4016783,22.6608379 C76.1679345,22.2777097 77.0450831,22.3986958 78.0331504,23.0237995 C78.2549614,23.164952 78.4364404,23.1347055 78.5775929,22.9330591 L81.1485713,19.4849233 C81.330053,19.2631123 81.2998065,19.0715511 81.0578309,18.910234 C79.7874587,18.0431546 78.4566126,17.5390462 77.0652526,17.3978938 C75.653728,17.2365767 74.332964,17.4684665 73.1029211,18.0935703 C71.8123843,18.7388387 70.7940854,19.7168089 70.0479938,21.0275104 C69.3220669,22.3382118 68.9591088,23.8202905 68.9591088,25.4737907 L68.9591088,32.9145048 L65.057271,32.9145048 C64.7951307,32.9145048 64.6640625,33.045573 64.6640625,33.3077133 L64.6640625,37.6330064 C64.6640625,37.8951467 64.7951307,38.0262149 65.057271,38.0262149 L68.9591088,38.0262149 L68.9591088,58.5637955 C68.9591088,58.8259358 69.090177,58.957004 69.3523173,58.957004 L73.6776104,58.957004 C73.9397507,58.957004 74.0708189,58.8259358 74.0708189,58.5637955 L74.0708189,38.0262149 L79.7572183,38.0262149 C80.0193585,38.0262149 80.1504267,37.8951467 80.1504267,37.6330064 L80.1504267,33.3077133 C80.1504267,33.045573 80.0193585,32.9145048 79.7572183,32.9145048 L74.0708189,32.9145048 Z M88.7993998,59.3502125 C89.0615401,59.3502125 89.1926082,59.2191443 89.1926082,58.957004 L89.1926082,16.3392556 C89.1926082,16.0771153 89.0615401,15.9460471 88.7993998,15.9460471 L84.3833662,15.9460471 C84.1212259,15.9460471 83.9901578,16.0771153 83.9901578,16.3392556 L83.9901578,58.957004 C83.9901578,59.2191443 84.1212259,59.3502125 84.3833662,59.3502125 L88.7993998,59.3502125 Z M97.0249176,32.1885815 C96.7627773,32.1885815 96.6317091,32.3196496 96.6317091,32.5817899 L96.6317091,58.957004 C96.6317091,59.2191443 96.7627773,59.3502125 97.0249176,59.3502125 L101.319964,59.3502125 C101.582104,59.3502125 101.713172,59.2191443 101.713172,58.957004 L101.713172,32.5817899 C101.713172,32.3196496 101.582104,32.1885815 101.319964,32.1885815 L97.0249176,32.1885815 Z M101.229223,26.3509481 C101.793833,25.7661736 102.076134,25.070504 102.076134,24.2639185 C102.076134,23.457333 101.793833,22.7717456 101.229223,22.2071358 C100.664614,21.6425259 99.9790262,21.3602252 99.1724407,21.3602252 C98.3658552,21.3602252 97.6802678,21.6425259 97.115658,22.2071358 C96.5308835,22.7717456 96.2385006,23.457333 96.2385006,24.2639185 C96.2385006,25.070504 96.5308835,25.7661736 97.115658,26.3509481 C97.6802678,26.9155579 98.3658552,27.1978586 99.1724407,27.1978586 C99.9790262,27.1978586 100.664614,26.9155579 101.229223,26.3509481 L101.229223,26.3509481 Z M115.776324,51.818758 C114.122823,50.205587 113.275921,48.2496465 113.235592,45.9508778 L113.235592,45.5879161 C113.275921,43.2689828 114.122823,41.3029601 115.776324,39.6897891 C117.429824,38.0766181 119.405929,37.2700447 121.704697,37.2700447 C124.043795,37.2700447 126.050147,38.0967825 127.723812,39.7502827 C129.377312,41.4239477 130.20405,43.430299 130.20405,45.769397 C130.20405,48.1084949 129.377312,50.1047641 127.723812,51.7582644 C126.050147,53.4117647 124.043795,54.2385024 121.704697,54.2385024 C119.405929,54.2385024 117.429824,53.431929 115.776324,51.818758 L115.776324,51.818758 Z M113.235592,35.1527684 L113.235592,32.6422835 C113.235592,32.3801433 113.104524,32.2490751 112.842383,32.2490751 L108.456597,32.2490751 C108.194456,32.2490751 108.063388,32.3801433 108.063388,32.6422835 L108.063388,75.1692915 C108.063388,75.4314318 108.194456,75.5625 108.456597,75.5625 L112.842383,75.5625 C113.104524,75.5625 113.235592,75.4314318 113.235592,75.1692915 L113.235592,56.3557788 C115.715842,58.3520779 118.538849,59.3502125 121.704697,59.3502125 C125.616637,59.3502125 128.913506,57.9286268 131.595403,55.0854129 C132.865775,53.7343822 133.823581,52.1918106 134.468849,50.4576518 C135.134282,48.662999 135.396418,46.797798 135.255266,44.8619928 C135.033455,41.4340044 133.672362,38.5000937 131.171947,36.0601725 C128.671532,33.6202514 125.707375,32.3297339 122.279387,32.1885815 C118.891728,32.047429 115.877159,33.0354814 113.235592,35.1527684 L113.235592,35.1527684 Z M147.301964,51.818758 C145.668628,50.205587 144.821726,48.2496465 144.761232,45.9508778 L144.761232,45.5576693 C144.821726,43.2589006 145.668628,41.3029601 147.301964,39.6897891 C148.955464,38.0766181 150.931569,37.2700447 153.230337,37.2700447 C155.569435,37.2700447 157.575787,38.0967825 159.249452,39.7502827 C160.902952,41.4239477 161.72969,43.430299 161.72969,45.769397 C161.72969,48.1084949 160.902952,50.1047641 159.249452,51.7582644 C157.575787,53.4117647 155.569435,54.2385024 153.230337,54.2385024 C150.931569,54.2385024 148.955464,53.431929 147.301964,51.818758 L147.301964,51.818758 Z M144.761232,35.1527684 L144.761232,16.3392556 C144.761232,16.0771153 144.630164,15.9460471 144.368023,15.9460471 L139.982237,15.9460471 C139.720096,15.9460471 139.589028,16.0771153 139.589028,16.3392556 L139.589028,58.8662636 C139.589028,59.1284039 139.720096,59.259472 139.982237,59.259472 L144.368023,59.259472 C144.630164,59.259472 144.761232,59.1284039 144.761232,58.8662636 L144.761232,56.3557788 C147.241482,58.3520779 150.064489,59.3502125 153.230337,59.3502125 C157.142277,59.3502125 160.439146,57.9185447 163.121043,55.0551661 C164.391415,53.7243001 165.349221,52.1918106 165.994489,50.4576518 C166.659922,48.662999 166.932141,46.797798 166.811153,44.8619928 C166.589342,41.4340044 165.228249,38.5000937 162.727834,36.0601725 C160.227419,33.6202514 157.25318,32.3297339 153.805027,32.1885815 C150.417368,32.047429 147.402799,33.0354814 144.761232,35.1527684 L144.761232,35.1527684 Z M171.427219,32.1885815 C171.165078,32.1885815 171.03401,32.3196496 171.03401,32.5817899 L171.03401,58.957004 C171.03401,59.2191443 171.165078,59.3502125 171.427219,59.3502125 L175.722265,59.3502125 C175.984405,59.3502125 176.115473,59.2191443 176.115473,58.957004 L176.115473,32.5817899 C176.115473,32.3196496 175.984405,32.1885815 175.722265,32.1885815 L171.427219,32.1885815 Z M175.631524,26.3509481 C176.196134,25.7661736 176.478435,25.070504 176.478435,24.2639185 C176.478435,23.457333 176.196134,22.7717456 175.631524,22.2071358 C175.066915,21.6425259 174.381327,21.3602252 173.574742,21.3602252 C172.768156,21.3602252 172.082569,21.6425259 171.517959,22.2071358 C170.933184,22.7717456 170.640802,23.457333 170.640802,24.2639185 C170.640802,25.070504 170.933184,25.7661736 171.517959,26.3509481 C172.082569,26.9155579 172.768156,27.1978586 173.574742,27.1978586 C174.381327,27.1978586 175.066915,26.9155579 175.631524,26.3509481 L175.631524,26.3509481 Z M190.38027,51.6070303 L190.38027,37.1793043 L194.524082,37.1793043 C194.786222,37.1793043 194.917291,37.0482361 194.917291,36.7860958 L194.917291,32.4910495 C194.917291,32.2289092 194.786222,32.0978411 194.524082,32.0978411 L190.38027,32.0978411 L190.38027,26.3811949 C190.38027,26.1190546 190.249202,25.9879864 189.987061,25.9879864 L185.661768,25.9879864 C185.399628,25.9879864 185.26856,26.1190546 185.26856,26.3811949 L185.298807,32.0978411 L181.154994,32.0978411 C180.892854,32.0978411 180.761786,32.2289092 180.761786,32.4910495 L180.761786,36.7860958 C180.761786,37.0482361 180.892854,37.1793043 181.154994,37.1793043 L185.298807,37.1793043 L185.298807,51.6070303 C185.298807,53.1798721 185.6416,54.5913755 186.327198,55.8415831 C187.03296,57.0917906 188.000848,58.01935 189.230891,58.6242891 C190.198794,59.1082404 191.217093,59.3502125 192.285819,59.3502125 C193.85866,59.3502125 195.360903,58.8561862 196.792593,57.868119 C197.034568,57.7269665 197.064815,57.5454875 196.883333,57.3236765 L194.312355,53.8755407 C194.171202,53.6738944 193.999805,53.6335657 193.798159,53.7545535 C192.931079,54.2989987 192.174917,54.4099026 191.529648,54.0872684 C190.763392,53.7041403 190.38027,52.8774025 190.38027,51.6070303 L190.38027,51.6070303 Z" id="flipbit" fill="#17282E"></path>
    </g>
</svg>